# xmcd
#
# Track frame offsets:
#	182
#	14782
#	29785
#	49082
#	63882
#
# Disc length: 1151 seconds
#
# Revision: 1
# Processed by: cddbd v1.5.2PL0 Copyright (c) Steve Scherf et al.
# Submitted via: EasyCDDAExtractor 10.0.3.1
#
DISCID=43047d05
DTITLE=Right Said Fred - Stand Up
DYEAR=2002
DGENRE=Dance
TTITLE0=Stand Up (For The Champions) - Radio Edit
TTITLE1=Stand Up (For The Champions) - Single Edit
TTITLE2=Stand Up (For The Champions) - Extended Mix
TTITLE3=Stand Up (For The Champions) - Blue PM RMX
TTITLE4=Stand Up (For The Champions) - Razzio Club Mix
EXTD=YEAR: 2002 ID3G: 3
EXTT0=
EXTT1=
EXTT2=
EXTT3=
EXTT4=
PLAYORDER=
